<svg width="20" height="20" viewBox="0 0 20 20" fill="none" xmlns="http://www.w3.org/2000/svg">
<g id="Sun_solid" clip-path="url(#clip0_617_3168)">
<g id="Group">
<path id="Vector" d="M10 4.33331C7.00004 4.33331 4.58337 6.74998 4.58337 9.74998C4.58337 12.75 7.00004 15.1666 10 15.1666C13 15.1666 15.4167 12.75 15.4167 9.74998C15.4167 6.74998 13 4.33331 10 4.33331Z" fill="#B8BFCC"/>
<path id="Vector_2" d="M10.0001 3.83331C10.5001 3.83331 10.8334 3.49998 10.8334 2.99998V1.66665C10.8334 1.16665 10.5001 0.833313 10.0001 0.833313C9.50008 0.833313 9.16675 1.16665 9.16675 1.66665V2.99998C9.16675 3.41665 9.50008 3.83331 10.0001 3.83331Z" fill="#B8BFCC"/>
<path id="Vector_3" d="M4.41667 5.58333C4.58333 5.75 4.83333 5.83333 5 5.83333C5.16667 5.83333 5.41667 5.75 5.58333 5.58333C5.91667 5.25 5.91667 4.75 5.58333 4.41667L4.66667 3.5C4.33333 3.16667 3.83333 3.16667 3.5 3.5C3.16667 3.83333 3.16667 4.33333 3.5 4.66667L4.41667 5.58333Z" fill="#B8BFCC"/>
<path id="Vector_4" d="M3.83337 9.99996C3.83337 9.49996 3.50004 9.16663 3.00004 9.16663H1.66671C1.16671 9.16663 0.833374 9.49996 0.833374 9.99996C0.833374 10.5 1.16671 10.8333 1.66671 10.8333H3.00004C3.41671 10.8333 3.83337 10.5 3.83337 9.99996Z" fill="#B8BFCC"/>
<path id="Vector_5" d="M4.41667 14.4166L3.5 15.3333C3.16667 15.6666 3.16667 16.1666 3.5 16.5C3.66667 16.6666 3.91667 16.75 4.08333 16.75C4.25 16.75 4.5 16.6666 4.66667 16.5L5.58333 15.5833C5.91667 15.25 5.91667 14.75 5.58333 14.4166C5.25 14.0833 4.75 14.0833 4.41667 14.4166Z" fill="#B8BFCC"/>
<path id="Vector_6" d="M10.0001 16.1666C9.50008 16.1666 9.16675 16.5 9.16675 17V18.3333C9.16675 18.8333 9.50008 19.1666 10.0001 19.1666C10.5001 19.1666 10.8334 18.8333 10.8334 18.3333V17C10.8334 16.5833 10.5001 16.1666 10.0001 16.1666Z" fill="#B8BFCC"/>
<path id="Vector_7" d="M15.5834 14.4166C15.2501 14.0833 14.7501 14.0833 14.4167 14.4166C14.0834 14.75 14.0834 15.25 14.4167 15.5833L15.3334 16.5C15.5001 16.6666 15.7501 16.75 15.9167 16.75C16.0834 16.75 16.3334 16.6666 16.5001 16.5C16.8334 16.1666 16.8334 15.6666 16.5001 15.3333L15.5834 14.4166Z" fill="#B8BFCC"/>
<path id="Vector_8" d="M18.3334 9.16663H17.0001C16.5001 9.16663 16.1667 9.49996 16.1667 9.99996C16.1667 10.5 16.5001 10.8333 17.0001 10.8333H18.3334C18.8334 10.8333 19.1667 10.5 19.1667 9.99996C19.1667 9.49996 18.8334 9.16663 18.3334 9.16663Z" fill="#B8BFCC"/>
<path id="Vector_9" d="M15.0001 5.83333C15.2501 5.83333 15.4167 5.75 15.5834 5.58333L16.5001 4.66667C16.8334 4.33333 16.8334 3.83333 16.5001 3.5C16.1667 3.16667 15.6667 3.16667 15.3334 3.5L14.4167 4.41667C14.0834 4.75 14.0834 5.25 14.4167 5.58333C14.5834 5.75 14.7501 5.83333 15.0001 5.83333Z" fill="#B8BFCC"/>
</g>
</g>
<defs>
<clipPath id="clip0_617_3168">
<rect width="20" height="20" fill="white"/>
</clipPath>
</defs>
</svg>
