<svg xmlns="http://www.w3.org/2000/svg" width="19" height="19" viewBox="0 0 19 19" fill="none">
  <g clip-path="url(#clip0_617_2762)">
    <path d="M9.4404 0.00169744C9.4404 0.00169744 15.0201 -0.249452 17.9772 5.35808H8.96594C8.96594 5.35808 7.26405 5.3021 5.81331 7.36689C5.39491 8.23182 4.94864 9.12458 5.45072 10.8819C4.72541 9.65463 1.60071 4.21434 1.60071 4.21434C1.60071 4.21434 3.80494 0.224792 9.4404 0.00169744Z" fill="#C6352E"/>
    <path d="M17.6867 14.2391C17.6867 14.2391 15.1137 19.1962 8.77869 18.9525C9.56019 17.5998 13.2854 11.1491 13.2854 11.1491C13.2854 11.1491 14.1848 9.70344 13.1228 7.41466C12.5829 6.61969 12.0332 5.78668 10.26 5.34254C11.686 5.32838 17.9593 5.34345 17.9593 5.34345C17.9593 5.34345 20.3117 9.24731 17.6867 14.2391Z" fill="#F4D911"/>
    <path d="M1.23369 14.2767C1.23369 14.2767 -1.77264 9.56924 1.6063 4.20522C2.38711 5.55846 6.11031 12.0102 6.11031 12.0102C6.11031 12.0102 6.9124 13.5119 9.42572 13.7368C10.3838 13.6669 11.3803 13.6073 12.6516 12.294C11.9507 13.5358 8.8006 18.9612 8.8006 18.9612C8.8006 18.9612 4.24365 19.0462 1.23369 14.2767Z" fill="#81B354"/>
    <path d="M8.77869 18.9984L10.0462 13.709C10.0462 13.709 11.44 13.6003 12.6078 12.3186C11.8828 13.5939 8.77869 18.9984 8.77869 18.9984Z" fill="#7BAA50"/>
    <path d="M5.19519 9.55839C5.19519 7.2267 7.08522 5.33646 9.41713 5.33646C11.7488 5.33646 13.639 7.22665 13.639 9.55839C13.639 11.8902 11.7489 13.7805 9.41713 13.7805C7.08522 13.7805 5.19519 11.8903 5.19519 9.55839Z" fill="white"/>
    <path d="M5.90173 9.55839C5.90173 7.61703 7.47551 6.04321 9.41708 6.04321C11.3583 6.04321 12.9322 7.61703 12.9322 9.55839C12.9322 11.4998 11.3583 13.0737 9.41708 13.0737C7.47551 13.0738 5.90173 11.4997 5.90173 9.55839Z" fill="url(#paint0_linear_617_2762)"/>
    <path d="M17.9593 5.34345L12.7399 6.87375C12.7399 6.87375 11.9528 5.71872 10.2599 5.34254C11.7268 5.33754 17.9593 5.34345 17.9593 5.34345Z" fill="#E7CE12"/>
    <path d="M5.34918 10.6921C4.61566 9.42176 1.60083 4.2142 1.60083 4.2142L5.46726 8.03898C5.46726 8.03898 5.06993 8.85631 5.22058 10.0237L5.34918 10.6921Z" fill="#BC332C"/>
  </g>
  <defs>
    <linearGradient id="paint0_linear_617_2762" x1="9.41695" y1="6.09294" x2="9.41695" y2="12.8634" gradientUnits="userSpaceOnUse">
      <stop stop-color="#A2C0E6"/>
      <stop offset="1" stop-color="#406CB1"/>
    </linearGradient>
    <clipPath id="clip0_617_2762">
      <rect width="18.93" height="18.9984" fill="white"/>
    </clipPath>
  </defs>
</svg>