<svg xmlns="http://www.w3.org/2000/svg" width="20" height="20" viewBox="0 0 20 20" fill="none">
  <path d="M16.7287 13.3949C16.4949 13.5172 16.2537 13.625 16.0067 13.7176C15.2202 14.0119 14.3871 14.1618 13.5474 14.1601C10.3058 14.1601 7.48204 11.9303 7.48204 9.06893C7.48619 8.68514 7.59269 8.30942 7.79055 7.98055C7.9884 7.65167 8.27045 7.38156 8.60756 7.19809C5.6756 7.3214 4.92206 10.3767 4.92206 12.1667C4.92206 17.2277 9.58648 17.7408 10.5914 17.7408C11.1333 17.7408 11.9505 17.5833 12.441 17.4284L12.5308 17.3983C14.4182 16.7458 16.0273 15.4701 17.0931 13.7813C17.1258 13.7299 17.1403 13.669 17.1345 13.6084C17.1287 13.5477 17.1029 13.4908 17.0611 13.4464C17.0193 13.4021 16.9639 13.373 16.9037 13.3637C16.8435 13.3544 16.7819 13.3654 16.7287 13.3949Z" fill="url(#paint0_linear_617_2817)"/>
  <path opacity="0.35" d="M16.7287 13.3949C16.4949 13.5172 16.2537 13.625 16.0067 13.7176C15.2202 14.0119 14.3871 14.1618 13.5474 14.1601C10.3058 14.1601 7.48204 11.9303 7.48204 9.06893C7.48619 8.68514 7.59269 8.30942 7.79055 7.98055C7.9884 7.65167 8.27045 7.38156 8.60756 7.19809C5.6756 7.3214 4.92206 10.3767 4.92206 12.1667C4.92206 17.2277 9.58648 17.7408 10.5914 17.7408C11.1333 17.7408 11.9505 17.5833 12.441 17.4284L12.5308 17.3983C14.4182 16.7458 16.0273 15.4701 17.0931 13.7813C17.1258 13.7299 17.1403 13.669 17.1345 13.6084C17.1287 13.5477 17.1029 13.4908 17.0611 13.4464C17.0193 13.4021 16.9639 13.373 16.9037 13.3637C16.8435 13.3544 16.7819 13.3654 16.7287 13.3949Z" fill="url(#paint1_radial_617_2817)"/>
  <path d="M8.1424 16.8804C7.53139 16.5012 7.00187 16.0042 6.58463 15.4185C6.10907 14.767 5.78181 14.0193 5.62582 13.2278C5.46983 12.4364 5.48888 11.6205 5.68163 10.8372C5.87438 10.0539 6.23617 9.32228 6.74161 8.69363C7.24706 8.06498 7.88393 7.55452 8.60754 7.19807C8.82127 7.09737 9.1864 6.91515 9.67209 6.92405C10.0143 6.92655 10.3512 7.00825 10.6566 7.16275C10.9619 7.31726 11.2273 7.54037 11.432 7.8146C11.7086 8.18396 11.8611 8.63146 11.8676 9.09288C11.8676 9.0785 13.5432 3.63998 6.38734 3.63998C3.38002 3.63998 0.907035 6.49385 0.907035 8.99766C0.895173 10.3221 1.17857 11.6326 1.73662 12.8339C2.64862 14.7798 4.24348 16.323 6.21833 17.1705C8.19318 18.018 10.4105 18.1108 12.4492 17.4312C11.7354 17.6562 10.9812 17.7238 10.2388 17.6292C9.49627 17.5346 8.78315 17.28 8.14857 16.8831L8.1424 16.8804Z" fill="url(#paint2_linear_617_2817)"/>
  <path opacity="0.41" d="M8.1424 16.8804C7.53139 16.5012 7.00187 16.0042 6.58463 15.4185C6.10907 14.767 5.78181 14.0193 5.62582 13.2278C5.46983 12.4364 5.48888 11.6205 5.68163 10.8372C5.87438 10.0539 6.23617 9.32228 6.74161 8.69363C7.24706 8.06498 7.88393 7.55452 8.60754 7.19807C8.82127 7.09737 9.1864 6.91515 9.67209 6.92405C10.0143 6.92655 10.3512 7.00825 10.6566 7.16275C10.9619 7.31726 11.2273 7.54037 11.432 7.8146C11.7086 8.18396 11.8611 8.63146 11.8676 9.09288C11.8676 9.0785 13.5432 3.63998 6.38734 3.63998C3.38002 3.63998 0.907035 6.49385 0.907035 8.99766C0.895173 10.3221 1.17857 11.6326 1.73662 12.8339C2.64862 14.7798 4.24348 16.323 6.21833 17.1705C8.19318 18.018 10.4105 18.1108 12.4492 17.4312C11.7354 17.6562 10.9812 17.7238 10.2388 17.6292C9.49627 17.5346 8.78315 17.28 8.14857 16.8831L8.1424 16.8804Z" fill="url(#paint3_radial_617_2817)"/>
  <path d="M11.3347 10.5397C11.2792 10.6116 11.1086 10.711 11.1086 10.9274C11.1086 11.1062 11.225 11.2782 11.4319 11.4227C12.417 12.1077 14.2742 12.0173 14.2789 12.0173C15.0089 12.0156 15.725 11.818 16.3526 11.4453C16.9857 11.0756 17.5111 10.5469 17.8768 9.91142C18.2425 9.27598 18.4356 8.55597 18.4371 7.82284C18.4549 6.28767 17.8891 5.26696 17.6603 4.81484C16.2087 1.97535 13.0753 0.342224 9.66796 0.342224C7.36362 0.341996 5.15181 1.24887 3.5109 2.86671C1.86999 4.48454 0.93188 6.68329 0.899475 8.9874C0.932357 6.48427 3.42041 4.46273 6.37978 4.46273C6.61954 4.46273 7.98688 4.48602 9.25694 5.15256C10.3763 5.74032 10.9627 6.45002 11.3703 7.15355C11.7936 7.88449 11.869 8.80792 11.869 9.17579C11.869 9.54365 11.6813 10.0889 11.3347 10.5397Z" fill="url(#paint4_radial_617_2817)"/>
  <path d="M11.3347 10.5397C11.2792 10.6116 11.1086 10.711 11.1086 10.9274C11.1086 11.1062 11.225 11.2782 11.4319 11.4227C12.417 12.1077 14.2742 12.0173 14.2789 12.0173C15.0089 12.0156 15.725 11.818 16.3526 11.4453C16.9857 11.0756 17.5111 10.5469 17.8768 9.91142C18.2425 9.27598 18.4356 8.55597 18.4371 7.82284C18.4549 6.28767 17.8891 5.26696 17.6603 4.81484C16.2087 1.97535 13.0753 0.342224 9.66796 0.342224C7.36362 0.341996 5.15181 1.24887 3.5109 2.86671C1.86999 4.48454 0.93188 6.68329 0.899475 8.9874C0.932357 6.48427 3.42041 4.46273 6.37978 4.46273C6.61954 4.46273 7.98688 4.48602 9.25694 5.15256C10.3763 5.74032 10.9627 6.45002 11.3703 7.15355C11.7936 7.88449 11.869 8.80792 11.869 9.17579C11.869 9.54365 11.6813 10.0889 11.3347 10.5397Z" fill="url(#paint5_radial_617_2817)"/>
  <defs>
    <linearGradient id="paint0_linear_617_2817" x1="4.92206" y1="12.4708" x2="17.139" y2="12.4708" gradientUnits="userSpaceOnUse">
      <stop stop-color="#0C59A4"/>
      <stop offset="1" stop-color="#114A8B"/>
    </linearGradient>
    <radialGradient id="paint1_radial_617_2817" cx="0" cy="0" r="1" gradientUnits="userSpaceOnUse" gradientTransform="translate(11.6697 12.5671) scale(6.53389 6.20719)">
      <stop offset="0.72" stop-opacity="0"/>
      <stop offset="0.95" stop-opacity="0.53"/>
      <stop offset="1"/>
    </radialGradient>
    <linearGradient id="paint2_linear_617_2817" x1="11.3628" y1="7.17135" x2="3.73213" y2="15.4829" gradientUnits="userSpaceOnUse">
      <stop stop-color="#1B9DE2"/>
      <stop offset="0.16" stop-color="#1595DF"/>
      <stop offset="0.67" stop-color="#0680D7"/>
      <stop offset="1" stop-color="#0078D4"/>
    </linearGradient>
    <radialGradient id="paint3_radial_617_2817" cx="0" cy="0" r="1" gradientUnits="userSpaceOnUse" gradientTransform="translate(5.73549 13.975) rotate(-81.3844) scale(9.82523 7.9378)">
      <stop offset="0.76" stop-opacity="0"/>
      <stop offset="0.95" stop-opacity="0.5"/>
      <stop offset="1"/>
    </radialGradient>
    <radialGradient id="paint4_radial_617_2817" cx="0" cy="0" r="1" gradientUnits="userSpaceOnUse" gradientTransform="translate(2.67115 3.58771) rotate(92.2906) scale(13.8783 29.5579)">
      <stop stop-color="#35C1F1"/>
      <stop offset="0.11" stop-color="#34C1ED"/>
      <stop offset="0.23" stop-color="#2FC2DF"/>
      <stop offset="0.31" stop-color="#2BC3D2"/>
      <stop offset="0.67" stop-color="#36C752"/>
    </radialGradient>
    <radialGradient id="paint5_radial_617_2817" cx="0" cy="0" r="1" gradientUnits="userSpaceOnUse" gradientTransform="translate(17.3453 5.64483) rotate(73.7398) scale(6.66816 5.42255)">
      <stop stop-color="#66EB6E"/>
      <stop offset="1" stop-color="#66EB6E" stop-opacity="0"/>
    </radialGradient>
  </defs>
</svg>