<svg xmlns="http://www.w3.org/2000/svg" width="18" height="18" viewBox="0 0 18 18" fill="none">
  <g clip-path="url(#clip0_617_2856)">
    <path fill-rule="evenodd" clip-rule="evenodd" d="M3.68397 0H14.316C16.3422 0 18 1.6578 18 3.68397V14.316C18 16.3422 16.3422 18 14.316 18H3.68397C1.6578 18 0 16.3422 0 14.316V3.68397C0 1.6578 1.6578 0 3.68397 0Z" fill="#3ACE01"/>
    <path fill-rule="evenodd" clip-rule="evenodd" d="M8.98253 2.98169C12.6297 2.98169 15.5863 5.34921 15.5863 8.2697C15.5863 9.28982 15.2253 10.2423 14.6004 11.0501C14.5695 11.096 14.5291 11.1468 14.4781 11.203L14.4743 11.2072C14.2608 11.4626 14.0204 11.7023 13.7561 11.9237C11.9299 13.6116 8.92406 15.6212 8.52734 15.3112C8.18246 15.0417 9.09536 13.7235 8.04213 13.5041C7.96866 13.4957 7.89537 13.4866 7.82271 13.4763L7.82133 13.4762V13.4761C4.72792 13.0367 2.37878 10.8729 2.37878 8.2697C2.37869 5.34921 5.33534 2.98169 8.98253 2.98169Z" fill="white"/>
    <path fill-rule="evenodd" clip-rule="evenodd" d="M5.15098 9.95638H6.48286C6.67232 9.95638 6.82727 9.80138 6.82727 9.61193V9.5832C6.82727 9.39375 6.67232 9.23879 6.48286 9.23879H5.52412V7.05748C5.52412 6.86803 5.36917 6.71307 5.17972 6.71307H5.15098C4.96153 6.71307 4.80658 6.86803 4.80658 7.05748V9.61188C4.80658 9.80138 4.96153 9.95638 5.15098 9.95638ZM13.404 8.35524V8.32651C13.404 8.13706 13.249 7.9821 13.0595 7.9821H12.1008V7.43676H13.0595C13.249 7.43676 13.404 7.28181 13.404 7.09236V7.06363C13.404 6.87417 13.249 6.71922 13.0595 6.71922H11.7277C11.5382 6.71922 11.3833 6.87417 11.3833 7.06363V9.61803C11.3833 9.80748 11.5382 9.96248 11.7277 9.96248H13.0595C13.249 9.96248 13.404 9.80748 13.404 9.61803V9.5893C13.404 9.39985 13.249 9.24489 13.0595 9.24489H12.1008V8.69955H13.0595C13.249 8.69965 13.404 8.54465 13.404 8.35524ZM10.8426 9.8537L10.8427 9.85356C10.9065 9.7893 10.9423 9.70248 10.9423 9.61198V7.05758C10.9423 6.86812 10.7874 6.71317 10.5979 6.71317H10.5691C10.3797 6.71317 10.2247 6.86812 10.2247 7.05758V8.55703L8.97985 6.88733C8.92039 6.7835 8.80841 6.71317 8.68081 6.71317H8.65208C8.46262 6.71317 8.30762 6.86812 8.30762 7.05758V9.61198C8.30762 9.80143 8.46258 9.95643 8.65208 9.95643H8.68081C8.87026 9.95643 9.02521 9.80143 9.02521 9.61198V8.08445L10.279 9.797C10.2868 9.80901 10.2952 9.82054 10.3043 9.8315L10.3043 9.83159C10.3388 9.87857 10.3859 9.91079 10.4384 9.93046C10.4788 9.94714 10.5229 9.95638 10.5691 9.95638H10.5978C10.6539 9.95642 10.7092 9.9426 10.7587 9.91617C10.7932 9.89978 10.8222 9.87862 10.8426 9.8537ZM7.44966 9.95638H7.47839C7.66784 9.95638 7.8228 9.80138 7.8228 9.61193V7.05753C7.8228 6.86808 7.66784 6.71312 7.47839 6.71312H7.44966C7.26021 6.71312 7.10521 6.86808 7.10521 7.05753V9.61193C7.10521 9.80138 7.26021 9.95638 7.44966 9.95638Z" fill="#3ACE01"/>
  </g>
  <defs>
    <clipPath id="clip0_617_2856">
      <rect width="18" height="18" fill="white"/>
    </clipPath>
  </defs>
</svg>