<svg width="32" height="32" viewBox="0 0 32 32" fill="none" xmlns="http://www.w3.org/2000/svg">
<g id="Frame">
<path id="Vector" d="M5.10542 18.2821C3.48677 18.5623 2.37726 20.0973 2.99861 21.5912C3.86609 23.6768 5.25004 25.5349 7.04423 26.987C9.60979 29.0631 12.8457 30.1725 16.1701 30.1156C19.4944 30.0586 22.689 28.839 25.1792 26.6761C26.9206 25.1636 28.2377 23.2591 29.0306 21.1451C29.5984 19.6309 28.435 18.1348 26.8073 17.9102C25.1798 17.6857 23.7184 18.8487 22.9145 20.2562C22.4787 21.019 21.913 21.7111 21.2352 22.2998C19.8065 23.5408 17.9735 24.2405 16.0663 24.2732C14.1589 24.3058 12.3022 23.6694 10.8302 22.4781C10.1319 21.913 9.54202 21.2407 9.07936 20.4932C8.2259 19.1142 6.72407 18.0019 5.10542 18.2821Z" fill="#AE9AFF"/>
<path id="Vector_2" d="M30.0084 17.4047C30.0805 16.8398 30.1176 16.2644 30.1176 15.6804C30.1176 8.05994 23.797 1.88232 16 1.88232C8.20301 1.88232 1.88232 8.05994 1.88232 15.6804C1.88232 16.4298 1.94345 17.1653 2.06111 17.8823C2.70956 17.0147 3.72163 16.3953 4.8148 16.207C5.99757 16.0031 7.07252 16.2835 7.9814 16.8075C7.92771 16.4394 7.89992 16.0631 7.89992 15.6804C7.89992 11.3082 11.5265 7.76372 16 7.76372C20.4735 7.76372 24.1 11.3082 24.1 15.6804C24.1 15.9687 24.0842 16.2534 24.0535 16.5337C24.9432 15.9787 26.0077 15.6617 27.1972 15.8251C28.2962 15.9761 29.3294 16.5602 30.0084 17.4047Z" fill="#5429FF"/>
</g>
</svg>
