<svg xmlns="http://www.w3.org/2000/svg" width="11" height="12" viewBox="0 0 11 12" fill="none">
  <path d="M9.81169 9.86179C7.3653 13.0165 2.20528 11.8766 0.552489 11.4225C-0.0973167 11.244 -0.185273 10.8037 0.644644 10.6081C6.34408 9.26429 8.13571 8.27819 8.27762 7.71096C8.38851 7.2677 7.4861 6.73675 6.97317 6.35115C6.65657 6.11314 6.64131 5.89726 6.84412 5.71701C7.3464 5.27058 8.75997 4.52485 9.58292 4.22628C10.3331 3.9541 10.6389 4.55296 10.7554 4.86959C11.1636 5.97886 11.1897 8.08487 9.81169 9.86179ZM0.244599 8.13078C0.361113 8.44741 0.666914 9.04627 1.41708 8.7741C2.24003 8.47552 3.6536 7.72979 4.15588 7.28337C4.35869 7.10311 4.34343 6.88723 4.02683 6.64922C3.5139 6.26362 2.61149 5.73268 2.72238 5.28941C2.86429 4.72218 4.65592 3.73609 10.3554 2.39233C11.1853 2.19665 9.64981 0.678526 9 0.5C7.34721 0.0458965 3.6347 -0.0161004 1.18831 3.13858C-0.189656 4.9155 -0.163595 7.02152 0.244599 8.13078Z" fill="#AE9AFF"/>
</svg>