<svg xmlns="http://www.w3.org/2000/svg" width="20" height="21" viewBox="0 0 20 21" fill="none">
  <path opacity="0.4" d="M19.1592 16.0701L15.7962 12.7027C16.3057 11.5803 16.6115 10.4578 16.6115 9.23332C16.6115 6.98843 15.7962 4.94761 14.1656 3.417C10.9045 0.151691 5.70701 0.151691 2.44586 3.417C-0.815287 6.6823 -0.815287 11.8864 2.44586 15.1517C3.97452 16.6823 6.11465 17.6007 8.25478 17.6007C9.47771 17.6007 10.7006 17.2945 11.7197 16.7843L15.0828 20.1517C15.5924 20.6619 16.4076 20.968 17.121 20.968C17.8344 20.968 18.5478 20.6619 19.1592 20.1517C20.2803 18.9272 20.2803 17.0905 19.1592 16.0701ZM3.87261 13.519C1.42675 11.0701 1.42675 7.09047 3.87261 4.74353C5.09554 3.51904 6.6242 2.90679 8.25478 2.90679C9.88535 2.90679 11.414 3.51904 12.6369 4.74353C13.8599 5.96802 14.4713 7.49863 14.4713 9.13128C14.4713 10.7639 13.8599 12.3966 12.6369 13.519C11.414 14.6415 9.88535 15.3558 8.25478 15.3558C6.6242 15.3558 4.99363 14.7435 3.87261 13.519Z" fill="#98A2B2"/>
</svg>